<svg width="63" height="11" viewBox="0 0 63 11" fill="none" xmlns="http://www.w3.org/2000/svg">
<path d="M-8.68307e-05 -5.98167e-05H1.657L6.64242 8.65361V-5.98167e-05H7.83212V10.0558H6.10422L1.18962 1.54372V10.0558H-8.68307e-05V-5.98167e-05ZM9.62965 6.30253C9.62965 3.92312 10.9751 2.37934 13.0571 2.37934C14.7284 2.37934 16.1872 3.49823 16.3146 6.14673L16.3288 6.67077H10.8618C10.9751 8.21455 11.7541 9.12099 13.0571 9.12099C13.8786 9.12099 14.6151 8.63944 14.955 7.84631L16.2013 7.93129C15.7623 9.3476 14.5018 10.2257 13.0571 10.2257C10.9751 10.2257 9.62965 8.68193 9.62965 6.30253ZM10.8902 5.63686H15.0541C14.8417 4.05059 13.9919 3.48407 13.0571 3.48407C11.8533 3.48407 11.0743 4.2772 10.8902 5.63686ZM18.6268 0.849727H19.7882V2.5493H21.7852V3.58321H19.7882V8.07292C19.7882 8.71026 20.0998 9.02185 20.6946 9.02185H21.771V10.0558H20.6946C19.3633 10.0558 18.6268 9.3476 18.6268 8.07292V3.58321H17.5221V2.5493H18.6268V0.849727ZM30.9728 -5.98167e-05C33.2106 -5.98167e-05 34.5277 1.13299 34.5277 3.03085C34.5277 4.9712 33.2106 6.13257 30.9728 6.13257H28.5651V10.0558H27.3754V-5.98167e-05H30.9728ZM28.5651 4.9712H30.9728C32.5166 4.9712 33.2814 4.31969 33.2814 3.03085C33.2814 1.78449 32.5166 1.16132 30.9728 1.16132H28.5651V4.9712ZM36.4506 2.5493H37.4704L37.5129 3.93729C37.7678 2.98836 38.3343 2.5493 39.3116 2.5493H40.0339V3.56905H39.3116C38.1644 3.56905 37.612 4.2772 37.612 5.58021V10.0558H36.4506V2.5493ZM44.3235 10.2257C42.2415 10.2257 40.896 8.68193 40.896 6.30253C40.896 3.92312 42.2415 2.37934 44.3235 2.37934C46.4055 2.37934 47.7509 3.92312 47.7509 6.30253C47.7509 8.68193 46.4055 10.2257 44.3235 10.2257ZM42.114 6.30253C42.114 8.05876 42.9213 9.12099 44.3235 9.12099C45.7115 9.12099 46.5329 8.05876 46.5329 6.30253C46.5329 4.5463 45.7115 3.48407 44.3235 3.48407C42.9213 3.48407 42.114 4.5463 42.114 6.30253ZM50.4599 2.03943C50.4599 0.807238 51.0972 -5.98167e-05 52.4711 -5.98167e-05H53.6041V1.01969H52.4569C51.9612 1.01969 51.6213 1.41625 51.6213 2.03943V2.5493H53.5191V3.58321H51.6213V10.0558H50.4599V3.58321H49.4402V2.5493H50.4599V2.03943ZM55.3745 1.37376V0.0282669H56.5925V1.37376H55.3745ZM55.4028 10.0558V2.5493H56.5642V10.0558H55.4028ZM59.8421 0.849727H61.0035V2.5493H63.0005V3.58321H61.0035V8.07292C61.0035 8.71026 61.3151 9.02185 61.9099 9.02185H62.9863V10.0558H61.9099C60.5786 10.0558 59.8421 9.3476 59.8421 8.07292V3.58321H58.7374V2.5493H59.8421V0.849727Z" fill="#737373"/>
</svg>
