<svg width="16" height="16" viewBox="0 0 16 16" fill="none" xmlns="http://www.w3.org/2000/svg">
<path d="M14 3.5C14.2761 3.5 14.5 3.72386 14.5 4C14.5 4.27614 14.2761 4.5 14 4.5H2C1.72386 4.5 1.5 4.27614 1.5 4C1.5 3.72386 1.72386 3.5 2 3.5H14Z" fill="#0A0A0A"/>
<path d="M11.3333 7.5C11.6095 7.5 11.8333 7.72386 11.8333 8C11.8333 8.27614 11.6095 8.5 11.3333 8.5H4.66667C4.39052 8.5 4.16667 8.27614 4.16667 8C4.16667 7.72386 4.39052 7.5 4.66667 7.5H11.3333Z" fill="#0A0A0A"/>
<path d="M9.33333 11.5C9.60948 11.5 9.83333 11.7239 9.83333 12C9.83333 12.2761 9.60948 12.5 9.33333 12.5H6.66667C6.39052 12.5 6.16667 12.2761 6.16667 12C6.16667 11.7239 6.39052 11.5 6.66667 11.5H9.33333Z" fill="#0A0A0A"/>
</svg>
