<svg width="16" height="16" viewBox="0 0 16 16" fill="none" xmlns="http://www.w3.org/2000/svg">
<path d="M8.41502 4.05714C8.65584 3.92203 8.96088 4.00775 9.09601 4.24854L10.3825 6.54216C10.5175 6.78296 10.4318 7.08739 10.1911 7.2225C9.95024 7.35762 9.64584 7.27192 9.51073 7.03109L8.22362 4.73812C8.08851 4.49731 8.17423 4.19226 8.41502 4.05714Z" fill="#404040"/>
<path d="M12.4001 7.64974C12.5935 7.4527 12.9107 7.44976 13.1077 7.64323C13.3046 7.83665 13.3075 8.15325 13.1142 8.35026C12.4472 9.02964 11.651 9.5691 10.7731 9.9375C9.89512 10.3059 8.95244 10.4961 8.00031 10.4961C7.04815 10.4961 6.10553 10.3059 5.22752 9.9375C4.3495 9.56909 3.55348 9.02969 2.88638 8.35026C2.69293 8.15322 2.69585 7.83669 2.89289 7.64323C3.08993 7.44978 3.40646 7.4527 3.59992 7.64974C4.17393 8.23435 4.85874 8.69863 5.61424 9.01562C6.36975 9.33263 7.18099 9.49609 8.00031 9.49609C8.81957 9.49607 9.63092 9.33261 10.3864 9.01562C11.1417 8.69866 11.8261 8.23421 12.4001 7.64974Z" fill="#404040"/>
<path d="M12.3144 11.0045C12.5549 10.8691 12.8599 10.9541 12.9954 11.1946L14.4355 13.7551C14.5708 13.9958 14.4854 14.3007 14.2447 14.4361C14.0041 14.5712 13.6991 14.4859 13.5637 14.2453L12.1243 11.6854C11.989 11.4449 12.074 11.1399 12.3144 11.0045Z" fill="#404040"/>
<path d="M6.91062 4.24854C7.04599 4.00785 7.35092 3.92242 7.59161 4.05779C7.83211 4.19314 7.91749 4.49752 7.78237 4.73812L2.43536 14.2453C2.29999 14.4857 1.99558 14.5711 1.75502 14.436C1.51434 14.3007 1.42891 13.9957 1.56427 13.7551L6.91062 4.24854Z" fill="#404040"/>
<path d="M8.83315 3.33333C8.83315 2.8731 8.46005 2.5 7.99982 2.5C7.53958 2.5 7.16648 2.8731 7.16648 3.33333C7.16648 3.79357 7.53958 4.16667 7.99982 4.16667C8.46005 4.16667 8.83315 3.79357 8.83315 3.33333ZM9.83315 3.33333C9.83315 4.34586 9.01234 5.16667 7.99982 5.16667C6.98729 5.16667 6.16648 4.34586 6.16648 3.33333C6.16648 2.32081 6.98729 1.5 7.99982 1.5C9.01234 1.5 9.83315 2.32081 9.83315 3.33333Z" fill="#404040"/>
</svg>
