<svg width="24" height="24" viewBox="0 0 24 24" fill="none" xmlns="http://www.w3.org/2000/svg">
<path d="M16.3037 10.4868C16.4194 10.1764 16.7658 10.0178 17.0762 10.1333C17.9268 10.4505 18.6841 10.9774 19.2773 11.6646C19.8706 12.3518 20.2811 13.178 20.4707 14.0659C20.6602 14.9538 20.6231 15.876 20.3623 16.7456C20.1014 17.615 19.6253 18.4047 18.9785 19.0415C18.3315 19.6785 17.5338 20.1429 16.6602 20.3901C15.7866 20.6373 14.8643 20.66 13.9795 20.4565C13.0948 20.2531 12.2755 19.8299 11.5977 19.2261C10.9197 18.6221 10.4045 17.8561 10.1006 17.0005C9.98994 16.6883 10.1537 16.3447 10.4658 16.2339C10.778 16.1232 11.1216 16.2869 11.2324 16.5991C11.4688 17.2645 11.8692 17.8599 12.3965 18.3296C12.9237 18.7991 13.561 19.1284 14.249 19.2866C14.9371 19.4447 15.6546 19.4271 16.334 19.2349C17.0131 19.0426 17.6327 18.6821 18.1357 18.187C18.639 17.6916 19.01 17.0763 19.2129 16.3999C19.4157 15.7236 19.4443 15.0064 19.2969 14.3159C19.1494 13.6255 18.8305 12.9832 18.3691 12.4487C17.9077 11.9143 17.3188 11.505 16.6572 11.2583C16.347 11.1426 16.1884 10.7971 16.3037 10.4868ZM15.3418 13.0767C15.5778 12.8443 15.9579 12.8466 16.1904 13.0825L16.75 13.6509C16.9811 13.8855 16.9797 14.2625 16.7471 14.4956L14.4912 16.7524C14.257 16.9866 13.8769 16.9864 13.6426 16.7524C13.4083 16.5182 13.4084 16.1381 13.6426 15.9038L15.4766 14.0688L15.335 13.9253C15.1024 13.6893 15.1059 13.3093 15.3418 13.0767ZM8.79492 3.3999C11.7771 3.40011 14.1943 5.81808 14.1943 8.80029C14.1941 11.7823 11.777 14.1995 8.79492 14.1997C5.81271 14.1997 3.39474 11.7825 3.39453 8.80029C3.39453 5.81796 5.81258 3.3999 8.79492 3.3999ZM8.79492 4.6001C6.47533 4.6001 4.59473 6.4807 4.59473 8.80029C4.59494 11.1197 6.47546 12.9995 8.79492 12.9995C11.1142 12.9993 12.9939 11.1196 12.9941 8.80029C12.9941 6.48082 11.1143 4.6003 8.79492 4.6001ZM8.79492 6.6001C9.12605 6.6003 9.39443 6.86855 9.39453 7.19971V10.3999C9.39453 10.7311 9.12612 10.9993 8.79492 10.9995C8.46355 10.9995 8.19434 10.7313 8.19434 10.3999V7.80029H7.99414C7.66296 7.80007 7.39453 7.53094 7.39453 7.19971C7.39464 6.86856 7.66302 6.60032 7.99414 6.6001H8.79492Z" fill="#0A0A0A"/>
</svg>
