<svg width="16" height="16" viewBox="0 0 16 16" fill="none" xmlns="http://www.w3.org/2000/svg">
<g clip-path="url(#clip0_71_7149)">
<path d="M14.1663 7.99992C14.1663 4.59416 11.4054 1.83325 7.99967 1.83325C4.59392 1.83325 1.83301 4.59416 1.83301 7.99992C1.83301 11.4057 4.59392 14.1666 7.99967 14.1666C11.4054 14.1666 14.1663 11.4057 14.1663 7.99992ZM15.1663 7.99992C15.1663 11.958 11.9577 15.1666 7.99967 15.1666C4.04163 15.1666 0.833008 11.958 0.833008 7.99992C0.833008 4.04188 4.04163 0.833252 7.99967 0.833252C11.9577 0.833252 15.1663 4.04188 15.1663 7.99992Z" fill="#A3A3A3"/>
<path d="M7.49967 3.99992C7.49967 3.72378 7.72353 3.49992 7.99967 3.49992C8.27582 3.49992 8.49967 3.72378 8.49967 3.99992V7.69067L10.8896 8.88599C11.1365 9.00944 11.2369 9.30962 11.1136 9.55656C10.9902 9.80346 10.69 9.90381 10.443 9.78052L7.77637 8.44718C7.60697 8.36249 7.49967 8.1893 7.49967 7.99992V3.99992Z" fill="#A3A3A3"/>
</g>
<defs>
<clipPath id="clip0_71_7149">
<rect width="16" height="16" fill="white"/>
</clipPath>
</defs>
</svg>
