<svg width="16" height="16" viewBox="0 0 16 16" fill="none" xmlns="http://www.w3.org/2000/svg">
<path d="M6.16667 2.66667C6.16667 2.57462 6.09205 2.5 6 2.5H2.66667C2.57462 2.5 2.5 2.57462 2.5 2.66667V7.33333C2.5 7.42538 2.57462 7.5 2.66667 7.5H6C6.09205 7.5 6.16667 7.42538 6.16667 7.33333V2.66667ZM7.16667 7.33333C7.16667 7.97767 6.64433 8.5 6 8.5H2.66667C2.02233 8.5 1.5 7.97767 1.5 7.33333V2.66667C1.5 2.02233 2.02233 1.5 2.66667 1.5H6C6.64433 1.5 7.16667 2.02233 7.16667 2.66667V7.33333Z" fill="#0A0A0A"/>
<path d="M13.5 2.66667C13.5 2.57462 13.4254 2.5 13.3333 2.5H10C9.90795 2.5 9.83333 2.57462 9.83333 2.66667V4.66667C9.83333 4.75871 9.90795 4.83333 10 4.83333H13.3333C13.4254 4.83333 13.5 4.75871 13.5 4.66667V2.66667ZM14.5 4.66667C14.5 5.311 13.9777 5.83333 13.3333 5.83333H10C9.35567 5.83333 8.83333 5.311 8.83333 4.66667V2.66667C8.83333 2.02233 9.35567 1.5 10 1.5H13.3333C13.9777 1.5 14.5 2.02233 14.5 2.66667V4.66667Z" fill="#0A0A0A"/>
<path d="M13.5 8.66667C13.5 8.57462 13.4254 8.5 13.3333 8.5H10C9.90795 8.5 9.83333 8.57462 9.83333 8.66667V13.3333C9.83333 13.4254 9.90795 13.5 10 13.5H13.3333C13.4254 13.5 13.5 13.4254 13.5 13.3333V8.66667ZM14.5 13.3333C14.5 13.9777 13.9777 14.5 13.3333 14.5H10C9.35567 14.5 8.83333 13.9777 8.83333 13.3333V8.66667C8.83333 8.02233 9.35567 7.5 10 7.5H13.3333C13.9777 7.5 14.5 8.02233 14.5 8.66667V13.3333Z" fill="#0A0A0A"/>
<path d="M6.16667 11.3333C6.16667 11.2413 6.09205 11.1667 6 11.1667H2.66667C2.57462 11.1667 2.5 11.2413 2.5 11.3333V13.3333C2.5 13.4254 2.57462 13.5 2.66667 13.5H6C6.09205 13.5 6.16667 13.4254 6.16667 13.3333V11.3333ZM7.16667 13.3333C7.16667 13.9777 6.64433 14.5 6 14.5H2.66667C2.02233 14.5 1.5 13.9777 1.5 13.3333V11.3333C1.5 10.689 2.02233 10.1667 2.66667 10.1667H6C6.64433 10.1667 7.16667 10.689 7.16667 11.3333V13.3333Z" fill="#0A0A0A"/>
</svg>
