<svg width="12" height="12" viewBox="0 0 12 12" fill="none" xmlns="http://www.w3.org/2000/svg">
<g clip-path="url(#clip0_0_42)">
<path d="M6.54123 10.3125C6.64478 10.1332 6.87409 10.0718 7.05343 10.1753C7.23279 10.2789 7.2942 10.5081 7.19064 10.6875C7.06998 10.8965 6.89667 11.0703 6.68771 11.1909C6.47875 11.3116 6.24149 11.375 6.00021 11.375C5.75894 11.375 5.52168 11.3115 5.31271 11.1909C5.10369 11.0702 4.92998 10.8965 4.80929 10.6875C4.70573 10.5081 4.76715 10.2789 4.9465 10.1753C5.12585 10.0717 5.35514 10.1332 5.45871 10.3125C5.51356 10.4075 5.5927 10.4862 5.68771 10.541C5.78271 10.5958 5.89053 10.625 6.00021 10.625C6.10984 10.625 6.21776 10.5958 6.31271 10.541C6.4076 10.4862 6.48642 10.4074 6.54123 10.3125Z" fill="#0A0A0A"/>
<path d="M10.625 4C10.625 2.94218 10.2584 2.01616 9.69385 1.21631C9.57444 1.04715 9.6146 0.813312 9.78369 0.693848C9.95285 0.574444 10.1867 0.614605 10.3062 0.783691C10.9415 1.68381 11.375 2.75788 11.375 4C11.375 4.20711 11.2071 4.375 11 4.375C10.7929 4.375 10.625 4.20711 10.625 4Z" fill="#0A0A0A"/>
<path d="M8.62488 4C8.62488 3.30389 8.34849 2.63631 7.85632 2.14404C7.36404 1.65176 6.69607 1.375 5.99988 1.375C5.30373 1.37503 4.63617 1.65179 4.14392 2.14404C3.65167 2.63632 3.37488 3.30384 3.37488 4C3.37488 5.16396 3.19217 5.96635 2.9032 6.57812C2.61691 7.18417 2.23761 7.57534 1.90808 7.91553L1.88806 7.94531C1.88277 7.95618 1.8788 7.96793 1.87683 7.97998C1.87297 8.00381 1.87638 8.0282 1.88611 8.05029C1.89586 8.07242 1.91177 8.09126 1.93201 8.10449C1.9523 8.11773 1.97614 8.12498 2.00037 8.125H10.0004C10.0244 8.12496 10.048 8.11807 10.0682 8.10498C10.0885 8.09179 10.1048 8.07288 10.1146 8.05078C10.1244 8.02863 10.1273 8.00389 10.1234 7.97998C10.1195 7.95611 10.1089 7.93391 10.0926 7.91602C9.76243 7.57563 9.38278 7.18437 9.09656 6.57861C8.80747 5.96673 8.62488 5.16399 8.62488 4ZM9.37488 4C9.37488 5.08551 9.54511 5.77219 9.77478 6.2583C10.0048 6.74508 10.3063 7.0594 10.639 7.40234C10.6418 7.40521 10.6447 7.40818 10.6473 7.41113C10.7615 7.53656 10.8365 7.69248 10.8636 7.85986C10.8908 8.02724 10.8688 8.19893 10.8002 8.354C10.7316 8.50903 10.6195 8.64092 10.4774 8.7334C10.3531 8.81429 10.2106 8.8619 10.0634 8.87256L9.99988 8.875H1.99988C1.83034 8.87488 1.66433 8.82553 1.52234 8.73291C1.38031 8.64023 1.268 8.50821 1.19958 8.35303C1.13119 8.19789 1.10973 8.02621 1.13708 7.85889C1.16447 7.69152 1.23957 7.53544 1.35388 7.41016L1.36169 7.40186C1.69377 7.05902 1.99546 6.74471 2.22546 6.25781C2.45503 5.77174 2.62488 5.08528 2.62488 4C2.62488 3.10489 2.98071 2.24622 3.61365 1.61328C4.24653 0.980489 5.1049 0.625033 5.99988 0.625C6.89495 0.625 7.75367 0.980384 8.38659 1.61328C9.01953 2.24622 9.37488 3.10489 9.37488 4Z" fill="#0A0A0A"/>
<path d="M0.625 4C0.625 2.75788 1.05847 1.68381 1.69385 0.783691C1.81331 0.614605 2.04715 0.574444 2.21631 0.693848C2.3854 0.813312 2.42556 1.04715 2.30615 1.21631C1.74158 2.01616 1.375 2.94218 1.375 4C1.375 4.20711 1.20711 4.375 1 4.375C0.792893 4.375 0.625 4.20711 0.625 4Z" fill="#0A0A0A"/>
</g>
<defs>
<clipPath id="clip0_0_42">
<rect width="12" height="12" fill="white"/>
</clipPath>
</defs>
</svg>
