<svg preserveAspectRatio="none" width="100%" height="100%" overflow="visible" style="display: block;" viewBox="0 0 12.9997 13.0002" fill="none" xmlns="http://www.w3.org/2000/svg">
<g id="Vector">
<path d="M6.91502 2.55714C7.15584 2.42203 7.46088 2.50775 7.59601 2.74854L8.88247 5.04216C9.01752 5.28296 8.93183 5.58739 8.69107 5.7225C8.45024 5.85762 8.14584 5.77192 8.01073 5.53109L6.72362 3.23812C6.58851 2.99731 6.67423 2.69226 6.91502 2.55714Z" fill="#404040"/>
<path d="M10.9001 6.14974C11.0935 5.9527 11.4107 5.94976 11.6077 6.14323C11.8046 6.33665 11.8075 6.65325 11.6142 6.85026C10.9472 7.52964 10.151 8.0691 9.2731 8.4375C8.39512 8.80589 7.45244 8.99607 6.50031 8.99609C5.54815 8.99609 4.60553 8.80589 3.72752 8.4375C2.8495 8.06909 2.05348 7.52969 1.38638 6.85026C1.19293 6.65322 1.19585 6.33669 1.39289 6.14323C1.58993 5.94978 1.90646 5.9527 2.09992 6.14974C2.67393 6.73435 3.35874 7.19863 4.11424 7.51563C4.86975 7.83263 5.68099 7.99609 6.50031 7.99609C7.31957 7.99607 8.13092 7.83261 8.88638 7.51563C9.6417 7.19866 10.3261 6.73421 10.9001 6.14974Z" fill="#404040"/>
<path d="M10.8144 9.50445C11.0549 9.36914 11.3599 9.45414 11.4954 9.69456L12.9355 12.2551C13.0708 12.4958 12.9854 12.8007 12.7447 12.9361C12.5041 13.0712 12.1991 12.9859 12.0637 12.7453L10.6243 10.1854C10.489 9.94488 10.574 9.63993 10.8144 9.50445Z" fill="#404040"/>
<path d="M5.41062 2.74854C5.54599 2.50785 5.85092 2.42242 6.09161 2.55779C6.33211 2.69314 6.41749 2.99752 6.28237 3.23812L0.935363 12.7453C0.799989 12.9857 0.495576 13.0711 0.255024 12.936C0.0143384 12.8007 -0.0710917 12.4957 0.064269 12.2551L5.41062 2.74854Z" fill="#404040"/>
<path d="M7.33315 1.83333C7.33315 1.3731 6.96005 1 6.49982 1C6.03958 1 5.66648 1.3731 5.66648 1.83333C5.66648 2.29357 6.03958 2.66667 6.49982 2.66667C6.96005 2.66667 7.33315 2.29357 7.33315 1.83333ZM8.33315 1.83333C8.33315 2.84586 7.51234 3.66667 6.49982 3.66667C5.48729 3.66667 4.66648 2.84586 4.66648 1.83333C4.66648 0.820811 5.48729 0 6.49982 0C7.51234 0 8.33315 0.820811 8.33315 1.83333Z" fill="#404040"/>
</g>
</svg>
