<svg preserveAspectRatio="none" width="100%" height="100%" overflow="visible" style="display: block;" viewBox="0 0 14.3333 14.3333" fill="none" xmlns="http://www.w3.org/2000/svg">
<g id="Vector">
<path d="M13.3333 7.16667C13.3333 3.76091 10.5724 1 7.16667 1C3.76091 1 1 3.76091 1 7.16667C1 10.5724 3.76091 13.3333 7.16667 13.3333C10.5724 13.3333 13.3333 10.5724 13.3333 7.16667ZM14.3333 7.16667C14.3333 11.1247 11.1247 14.3333 7.16667 14.3333C3.20863 14.3333 0 11.1247 0 7.16667C0 3.20863 3.20863 0 7.16667 0C11.1247 0 14.3333 3.20863 14.3333 7.16667Z" fill="#A3A3A3"/>
<path d="M6.66667 3.16667C6.66667 2.89052 6.89052 2.66667 7.16667 2.66667C7.44281 2.66667 7.66667 2.89052 7.66667 3.16667V6.85742L10.0566 8.05273C10.3035 8.17619 10.4039 8.47637 10.2806 8.72331C10.1571 8.97021 9.85697 9.07056 9.61003 8.94727L6.94336 7.61393C6.77397 7.52924 6.66667 7.35605 6.66667 7.16667V3.16667Z" fill="#A3A3A3"/>
</g>
</svg>
