<svg preserveAspectRatio="none" width="100%" height="100%" overflow="visible" style="display: block;" viewBox="0 0 10.75 10.75" fill="none" xmlns="http://www.w3.org/2000/svg">
<g id="Vector">
<path d="M5.91623 9.6875C6.01978 9.50816 6.24909 9.44677 6.42843 9.55029C6.60779 9.65386 6.6692 9.88315 6.56564 10.0625C6.44498 10.2715 6.27167 10.4453 6.06271 10.5659C5.85375 10.6866 5.61649 10.75 5.37521 10.75C5.13394 10.75 4.89668 10.6865 4.68771 10.5659C4.47869 10.4452 4.30498 10.2715 4.18429 10.0625C4.08073 9.88315 4.14215 9.65386 4.3215 9.55029C4.50085 9.44673 4.73014 9.50815 4.83371 9.6875C4.88856 9.7825 4.9677 9.86117 5.06271 9.91602C5.15771 9.97084 5.26553 10 5.37521 10C5.48484 9.99996 5.59276 9.97083 5.68771 9.91602C5.7826 9.86118 5.86142 9.78241 5.91623 9.6875Z" fill="#0A0A0A"/>
<path d="M10 3.375C10 2.31718 9.63342 1.39116 9.06885 0.591309C8.94944 0.422154 8.9896 0.188312 9.15869 0.0688477C9.32785 -0.0505557 9.56169 -0.0103953 9.68115 0.158691C10.3165 1.05881 10.75 2.13288 10.75 3.375C10.75 3.58211 10.5821 3.75 10.375 3.75C10.1679 3.75 10 3.58211 10 3.375Z" fill="#0A0A0A"/>
<path d="M7.99988 3.375C7.99988 2.67889 7.72349 2.01131 7.23132 1.51904C6.73904 1.02676 6.07107 0.75 5.37488 0.75C4.67873 0.750033 4.01117 1.02679 3.51892 1.51904C3.02667 2.01132 2.74988 2.67884 2.74988 3.375C2.74988 4.53896 2.56717 5.34135 2.2782 5.95312C1.99191 6.55917 1.61261 6.95034 1.28308 7.29053L1.26306 7.32031C1.25777 7.33118 1.2538 7.34293 1.25183 7.35498C1.24797 7.37881 1.25138 7.4032 1.26111 7.42529C1.27086 7.44742 1.28677 7.46626 1.30701 7.47949C1.3273 7.49273 1.35114 7.49998 1.37537 7.5H9.37536C9.39943 7.49996 9.42304 7.49307 9.44324 7.47998C9.4635 7.46679 9.47982 7.44788 9.48962 7.42578C9.49942 7.40363 9.50229 7.37889 9.49841 7.35498C9.49453 7.33111 9.4839 7.30891 9.46765 7.29102C9.13743 6.95063 8.75778 6.55937 8.47156 5.95361C8.18247 5.34173 7.99988 4.53899 7.99988 3.375ZM8.74988 3.375C8.74988 4.46051 8.92011 5.14719 9.14978 5.6333C9.37981 6.12008 9.68134 6.4344 10.014 6.77734C10.0168 6.78021 10.0197 6.78318 10.0223 6.78613C10.1365 6.91156 10.2115 7.06748 10.2386 7.23486C10.2658 7.40224 10.2438 7.57393 10.1752 7.729C10.1066 7.88403 9.9945 8.01592 9.85242 8.1084C9.72811 8.18929 9.58558 8.2369 9.43835 8.24756L9.37488 8.25H1.37488C1.20534 8.24988 1.03933 8.20053 0.897338 8.10791C0.755308 8.01523 0.642998 7.88321 0.574584 7.72803C0.506191 7.57289 0.484733 7.40121 0.512084 7.23389C0.53947 7.06652 0.614575 6.91044 0.728881 6.78516L0.736693 6.77686C1.06877 6.43402 1.37046 6.11971 1.60046 5.63281C1.83003 5.14674 1.99988 4.46028 1.99988 3.375C1.99988 2.47989 2.35571 1.62122 2.98865 0.988281C3.62153 0.355489 4.4799 3.2576e-05 5.37488 0C6.26995 0 7.12867 0.355384 7.76159 0.988281C8.39453 1.62122 8.74988 2.47989 8.74988 3.375Z" fill="#0A0A0A"/>
<path d="M0 3.375C0 2.13288 0.433473 1.05881 1.06885 0.158691C1.18831 -0.0103953 1.42215 -0.0505557 1.59131 0.0688477C1.7604 0.188312 1.80056 0.422154 1.68115 0.591309C1.11658 1.39116 0.75 2.31718 0.75 3.375C0.75 3.58211 0.582107 3.75 0.375 3.75C0.167893 3.75 0 3.58211 0 3.375Z" fill="#0A0A0A"/>
</g>
</svg>
