<svg preserveAspectRatio="none" width="100%" height="100%" overflow="visible" style="display: block;" viewBox="0 0 13 13" fill="none" xmlns="http://www.w3.org/2000/svg">
<g id="Vector">
<path d="M12 1.83333C12 1.3731 11.6269 1 11.1667 1H1.83333C1.3731 1 1 1.3731 1 1.83333V11.1667C1 11.6269 1.3731 12 1.83333 12H11.1667C11.6269 12 12 11.6269 12 11.1667V1.83333ZM13 11.1667C13 12.1792 12.1792 13 11.1667 13H1.83333C0.820811 13 0 12.1792 0 11.1667V1.83333C0 0.820811 0.820811 0 1.83333 0H11.1667C12.1792 0 13 0.820811 13 1.83333V11.1667Z" fill="#737373"/>
<path d="M8 12.5V0.5C8 0.223858 8.22386 0 8.5 0C8.77614 0 9 0.223858 9 0.5V12.5C9 12.7761 8.77614 13 8.5 13C8.22386 13 8 12.7761 8 12.5Z" fill="#737373"/>
</g>
</svg>
