<svg preserveAspectRatio="none" width="100%" height="100%" overflow="visible" style="display: block;" viewBox="0 0 24 24" fill="none" xmlns="http://www.w3.org/2000/svg">
<g id="Icon frame">
<path id="Left icon" d="M16.3034 10.4869C16.4191 10.1765 16.7655 10.0178 17.0759 10.1334C17.9265 10.4505 18.6838 10.9774 19.277 11.6646C19.8703 12.3519 20.2808 13.1781 20.4704 14.066C20.6599 14.9539 20.6229 15.8761 20.362 16.7457C20.1011 17.6151 19.625 18.4047 18.9782 19.0416C18.3312 19.6786 17.5335 20.1429 16.6599 20.3902C15.7863 20.6374 14.864 20.66 13.9792 20.4566C13.0945 20.2532 12.2752 19.8299 11.5974 19.2261C10.9194 18.6222 10.4042 17.8562 10.1003 17.0006C9.98965 16.6884 10.1534 16.3448 10.4655 16.234C10.7777 16.1232 11.1213 16.287 11.2321 16.5992C11.4685 17.2646 11.8689 17.8599 12.3962 18.3297C12.9234 18.7992 13.5607 19.1285 14.2487 19.2867C14.9368 19.4448 15.6543 19.4272 16.3337 19.2349C17.0128 19.0427 17.6324 18.6821 18.1354 18.1871C18.6387 17.6916 19.0097 17.0764 19.2126 16.4C19.4154 15.7236 19.444 15.0065 19.2966 14.316C19.1491 13.6256 18.8302 12.9832 18.3688 12.4488C17.9074 11.9143 17.3185 11.5051 16.6569 11.2584C16.3467 11.1427 16.1881 10.7972 16.3034 10.4869ZM15.3415 13.0767C15.5775 12.8443 15.9576 12.8467 16.1901 13.0826L16.7497 13.651C16.9808 13.8856 16.9794 14.2626 16.7468 14.4957L14.4909 16.7525C14.2567 16.9866 13.8766 16.9865 13.6423 16.7525C13.408 16.5182 13.4081 16.1382 13.6423 15.9039L15.4763 14.0689L15.3347 13.9254C15.1021 13.6894 15.1056 13.3094 15.3415 13.0767ZM8.79463 3.39998C11.7768 3.40018 14.194 5.81815 14.194 8.80037C14.1938 11.7824 11.7767 14.1996 8.79463 14.1998C5.81242 14.1998 3.39445 11.7825 3.39424 8.80037C3.39424 5.81803 5.81229 3.39998 8.79463 3.39998ZM8.79463 4.60017C6.47503 4.60017 4.59443 6.48077 4.59443 8.80037C4.59464 11.1198 6.47516 12.9996 8.79463 12.9996C11.1139 12.9994 12.9936 11.1197 12.9938 8.80037C12.9938 6.4809 11.1141 4.60037 8.79463 4.60017ZM8.79463 6.60017C9.12576 6.60037 9.39413 6.86862 9.39424 7.19978V10.4C9.39424 10.7312 9.12582 10.9994 8.79463 10.9996C8.46326 10.9996 8.19404 10.7313 8.19404 10.4V7.80037H7.99385C7.66266 7.80015 7.39424 7.53102 7.39424 7.19978C7.39434 6.86863 7.66273 6.60039 7.99385 6.60017H8.79463Z" fill="#0A0A0A"/>
</g>
</svg>
