<svg preserveAspectRatio="none" width="100%" height="100%" overflow="visible" style="display: block;" viewBox="0 0 12.9999 12.9999" fill="none" xmlns="http://www.w3.org/2000/svg">
<path id="Vector" d="M4.75708 3.5C4.75708 2.65314 4.98412 1.82984 5.40357 1.11068C4.70712 1.25236 4.04133 1.52838 3.44458 1.92708C2.54012 2.53142 1.83483 3.3902 1.41854 4.39518C1.00228 5.40014 0.893205 6.50606 1.10539 7.57292C1.31761 8.63981 1.84141 9.62013 2.6106 10.3893C3.37979 11.1585 4.36011 11.6823 5.42701 11.8945C6.49387 12.1067 7.59978 11.9976 8.60474 11.5814C9.60972 11.1651 10.4685 10.4598 11.0728 9.55534C11.4716 8.95846 11.7469 8.29233 11.8886 7.5957C11.1695 8.01507 10.3467 8.24284 9.49992 8.24284C8.2421 8.24284 7.03582 7.74293 6.14641 6.85352C5.25699 5.9641 4.75708 4.75783 4.75708 3.5ZM5.75708 3.5C5.75708 4.49261 6.15156 5.4446 6.85344 6.14648C7.55532 6.84836 8.50731 7.24284 9.49992 7.24284C10.4925 7.24284 11.4445 6.84836 12.1464 6.14648C12.2894 6.0035 12.5045 5.9604 12.6913 6.03776C12.8782 6.11515 12.9999 6.29777 12.9999 6.5C12.9999 7.78558 12.6185 9.04241 11.9042 10.1113C11.19 11.1801 10.1751 12.0133 8.98755 12.5052C7.79983 12.9972 6.49257 13.1258 5.23169 12.875C3.97088 12.6242 2.81257 12.0054 1.90357 11.0964C0.994566 10.1874 0.375747 9.02905 0.124923 7.76823C-0.125881 6.50735 0.00274539 5.20009 0.494715 4.01237C0.986662 2.8248 1.81982 1.80989 2.8886 1.0957C3.95751 0.381474 5.21435 5.02751e-07 6.49992 0C6.70215 0 6.88477 0.121757 6.96216 0.308594C7.03952 0.495419 6.99643 0.710529 6.85344 0.853516C6.15156 1.5554 5.75708 2.50739 5.75708 3.5Z" fill="#737373"/>
</svg>
