<svg width="45" height="50" viewBox="0 0 45 50" fill="none" xmlns="http://www.w3.org/2000/svg">
<path fill-rule="evenodd" clip-rule="evenodd" d="M34.0736 32.3532V34.0247H32.6793V32.3532H34.0736ZM36.7455 32.3532V34.0247H35.3511V32.3532H36.7455ZM31.402 28.0275V29.6991H30.0076V28.0277L31.402 28.0275ZM34.0736 28.0275V29.6991H32.6793V28.0277L34.0736 28.0275ZM36.7455 28.0275V29.6991H35.3511V28.0277L36.7455 28.0275ZM31.402 23.7017V25.3733H30.0076V23.7017H31.402ZM34.0736 23.7017V25.3733H32.6793V23.7017H34.0736ZM36.7455 23.7017V25.3733H35.3511V23.7017H36.7455ZM31.402 19.3763V21.0476H30.0076V19.3763H31.402ZM34.0736 19.3763V21.0476H32.6793V19.3763H34.0736ZM36.7455 19.3763V21.0476H35.3511V19.3763H36.7455ZM31.402 15.0505V16.722H30.0076V15.0503L31.402 15.0505ZM34.0736 15.0505V16.722H32.6793V15.0503L34.0736 15.0505ZM36.7455 15.0505V16.722H35.3511V15.0503L36.7455 15.0505ZM15.6814 25.7276C14.868 24.9073 13.7976 24.3968 12.6526 24.283C11.5077 24.1692 10.359 24.4592 9.40239 25.1035C8.44574 25.7479 7.7403 26.7067 7.40626 27.8166C7.07222 28.9265 7.13026 30.1189 7.57048 31.1905C8.0107 32.2621 8.80587 33.1466 9.8205 33.6934C10.8351 34.2402 12.0064 34.4155 13.1348 34.1892C14.2632 33.9629 15.2789 33.3492 16.0087 32.4526C16.7386 31.5561 17.1376 30.4321 17.1376 29.2722C17.1384 28.6138 17.0102 27.9617 16.7603 27.3534C16.5104 26.7451 16.1438 26.1926 15.6814 25.7276ZM14.5006 35.8991L15.2517 40.2932C15.2778 40.423 15.2668 40.5577 15.2198 40.6815L12.8161 47.0041C12.766 47.1373 12.677 47.252 12.5607 47.3329C12.4445 47.4138 12.3066 47.4572 12.1653 47.4572C12.024 47.4572 11.8861 47.4138 11.7699 47.3329C11.6536 47.252 11.5646 47.1373 11.5145 47.0041L9.1109 40.6814L9.11233 40.6807C9.06896 40.5664 9.05631 40.4425 9.07566 40.3217L9.769 35.9086C7.11663 36.4461 4.71706 37.8581 2.94837 39.9221C1.17969 41.986 0.142417 44.5845 0 47.3083C1.77316 48.1707 3.63808 48.8265 5.55862 49.263C9.90937 50.2457 14.4219 50.2457 18.7726 49.263C20.6933 48.8265 22.5583 48.1707 24.3315 47.3081C24.1878 44.5741 23.1426 41.9667 21.3616 39.8998C19.5807 37.8329 17.166 36.4248 14.5008 35.899L14.5006 35.8991ZM11.2217 35.6207C11.8249 35.7108 12.4377 35.7141 13.0418 35.6305L13.8506 40.3604L12.1656 44.7925L10.478 40.353L11.2217 35.6203V35.6207ZM22.4078 38.9747C22.3613 38.9206 22.3144 38.867 22.267 38.8138C20.4827 36.8072 18.1502 35.3767 15.5623 34.7017C16.7013 33.9773 17.5831 32.9076 18.081 31.6463C18.579 30.3849 18.6674 28.9969 18.3337 27.6817C17.9999 26.3665 17.2612 25.1918 16.2236 24.3265C15.1859 23.4612 13.9029 22.9498 12.5589 22.8659V4.25498H23.344V38.9742L22.4078 38.9747ZM28.2287 0H18.6828L14.2479 2.8492H23.8392L28.2287 0ZM38.769 12.0425H27.9842V36.8084C28.0244 36.8376 28.0614 36.8709 28.0946 36.908H38.7685V12.0418L38.769 12.0425ZM40.1633 36.271L45 32.8875V9.37232L40.1629 11.7744V36.2707L40.1633 36.271ZM27.0369 10.6831C26.9053 10.7341 26.7921 10.8241 26.7123 10.9413C26.6325 11.0584 26.5898 11.1972 26.5898 11.3393V37.1886L24.7387 38.3903V3.93371L29.8993 0.583738V9.34571L27.0369 10.6831ZM42.7087 8.9476L39.3078 10.6365H30.4457L34.0601 8.9476H42.7087ZM15.9773 7.13447H14.583V8.80595H15.9773V7.13447ZM18.6492 7.13447H17.2547V8.80595H18.6492V7.13447ZM21.3209 7.13447H19.9264V8.80595H21.3207V7.13447H21.3209ZM15.9773 11.4602H14.583V13.1316H15.9773V11.4602ZM18.6492 11.4602H17.2547V13.1316H18.6492V11.4602ZM21.3209 11.4602H19.9264V13.1316H21.3207V11.4602H21.3209ZM15.9773 15.7859H14.583V17.4575H15.9773V15.7859ZM18.6492 15.7859H17.2547V17.4575H18.6492V15.7859ZM21.3209 15.7859H19.9264V17.4575H21.3207V15.7859H21.3209ZM15.9773 20.1112H14.583V21.7827H15.9773V20.1112ZM18.6492 20.1112H17.2547V21.7827H18.6492V20.1112ZM21.3209 20.1112H19.9264V21.7827H21.3207V20.1112H21.3209ZM21.3209 24.437H19.9264V26.109H21.3207V24.4374L21.3209 24.437ZM21.3209 28.7627H19.9264V30.4341H21.3207V28.7626L21.3209 28.7627ZM21.3209 33.0884H19.9264V34.7603H21.3207V33.0888L21.3209 33.0884ZM31.402 32.3529V34.0244H30.0076V32.3529H31.402Z" fill="black"/>
</svg>
