<svg width="16" height="16" viewBox="0 0 16 16" fill="none" xmlns="http://www.w3.org/2000/svg">
<path d="M1.28743 9.73757C1.43238 9.50253 1.74054 9.42922 1.97559 9.57416C2.21062 9.71911 2.28329 10.0273 2.13835 10.2623C1.94231 10.5802 1.83848 10.9577 1.83301 11.3404C1.83478 11.8211 1.99601 12.2878 2.29199 12.6666C2.58948 13.0474 3.00613 13.3178 3.47493 13.4348C3.9437 13.5518 4.43838 13.5087 4.87988 13.3124C5.32136 13.1162 5.68455 12.7779 5.91178 12.3515L5.91504 12.345C6.28249 11.6794 6.97722 10.8203 8.00618 10.8203H11.9997C12.2758 10.8203 12.4997 11.0441 12.4997 11.3203C12.4995 11.5963 12.2757 11.8203 11.9997 11.8203H8.00618C7.56866 11.8203 7.12983 12.2138 6.79069 12.8281L6.79004 12.8274C6.45775 13.4476 5.92919 13.9399 5.28613 14.2259C4.64084 14.5127 3.91788 14.5759 3.23275 14.4049C2.54756 14.2338 1.93902 13.8383 1.50423 13.2818C1.06952 12.7254 0.833228 12.0394 0.833008 11.3333V11.3261L0.842773 11.1197C0.880649 10.6379 1.02731 10.1594 1.28743 9.73757Z" fill="#404040"/>
<path d="M7.59342 0.860825C8.01253 0.804665 8.43871 0.832981 8.84668 0.944158C9.25464 1.05534 9.63642 1.24694 9.96908 1.50796C10.3017 1.76901 10.5785 2.0945 10.7835 2.46434C10.9174 2.70583 10.8303 3.01015 10.5889 3.14403C10.3474 3.27791 10.0431 3.19023 9.90918 2.94872C9.76896 2.69582 9.57935 2.47361 9.35189 2.29507C9.12427 2.11646 8.86281 1.98508 8.58366 1.909C8.30455 1.83295 8.01296 1.81329 7.72624 1.85171C7.43954 1.89013 7.16361 1.98613 6.91439 2.13296C6.66516 2.27982 6.44761 2.47499 6.27506 2.70718C6.1025 2.93941 5.97789 3.20412 5.90918 3.48517C5.84052 3.76616 5.82873 4.05832 5.87467 4.3439C5.92063 4.62938 6.0235 4.90274 6.17676 5.14793C6.39671 5.4867 6.59763 5.89584 6.69108 6.32892C6.78582 6.76822 6.7751 7.26189 6.52506 7.71955L4.43913 11.5711C4.30763 11.8139 4.00422 11.9044 3.76139 11.7729C3.51868 11.6414 3.42875 11.338 3.56022 11.0952L5.64681 7.24168L5.64746 7.24038C5.75063 7.05156 5.77334 6.81869 5.71322 6.53986C5.65238 6.25792 5.51239 5.95941 5.33431 5.68635C5.3326 5.68373 5.33076 5.68118 5.3291 5.67853C5.10496 5.32006 4.95489 4.92016 4.88769 4.50275C4.82053 4.08528 4.83742 3.6583 4.93783 3.24754C5.03824 2.83677 5.22013 2.45025 5.47233 2.11082C5.72453 1.77142 6.04227 1.48565 6.40658 1.27098C6.77082 1.05639 7.17441 0.916979 7.59342 0.860825Z" fill="#404040"/>
<path d="M14.1663 11.3333C14.1663 10.7586 13.9379 10.2077 13.5316 9.80137C13.1252 9.39505 12.5743 9.16661 11.9997 9.16661C11.234 9.16661 10.1425 8.96567 9.64746 8.05984L7.56087 4.23953C7.42856 3.9972 7.51778 3.6935 7.76009 3.56114C8.00242 3.42883 8.30611 3.51804 8.43848 3.76036L10.5251 7.58002C10.7368 7.96746 11.2987 8.16661 11.9997 8.16661C12.8395 8.16661 13.6447 8.50048 14.2386 9.09434C14.8325 9.68821 15.1663 10.4934 15.1663 11.3333C15.1663 12.1731 14.8325 12.9783 14.2386 13.5722C13.6447 14.1661 12.8395 14.4999 11.9997 14.4999C11.7235 14.4999 11.4997 14.2761 11.4997 13.9999C11.4997 13.7238 11.7235 13.4999 11.9997 13.4999C12.5743 13.4999 13.1252 13.2715 13.5316 12.8652C13.9379 12.4588 14.1663 11.9079 14.1663 11.3333Z" fill="#404040"/>
</svg>
