<svg width="24" height="24" viewBox="0 0 24 24" fill="none" xmlns="http://www.w3.org/2000/svg">
<path d="M9.38575 7.5C9.38575 6.22972 9.72631 4.99476 10.3555 3.91602C9.3108 4.12854 8.31211 4.54257 7.417 5.14062C6.06031 6.04714 5.00236 7.33531 4.37794 8.84277C3.75354 10.3502 3.58993 12.0091 3.90821 13.6094C4.22654 15.2097 5.01224 16.6802 6.16602 17.834C7.31981 18.9878 8.79029 19.7735 10.3906 20.0918C11.9909 20.4101 13.6498 20.2465 15.1572 19.6221C16.6647 18.9976 17.9529 17.9397 18.8594 16.583C19.4576 15.6877 19.8705 14.6885 20.083 13.6436C19.0043 14.2726 17.7702 14.6143 16.5 14.6143C14.6133 14.6143 12.8039 13.8644 11.4697 12.5303C10.1356 11.1961 9.38575 9.38674 9.38575 7.5ZM10.8857 7.5C10.8857 8.98891 11.4775 10.4169 12.5303 11.4697C13.5831 12.5225 15.0111 13.1143 16.5 13.1143C17.9889 13.1143 19.4169 12.5225 20.4697 11.4697C20.6842 11.2552 21.0069 11.1906 21.2871 11.3066C21.5674 11.4227 21.75 11.6967 21.75 12C21.75 13.9284 21.1778 15.8136 20.1065 17.417C19.0352 19.0202 17.5128 20.2699 15.7315 21.0078C13.9499 21.7458 11.989 21.9387 10.0977 21.5625C8.20644 21.1863 6.46898 20.258 5.10548 18.8945C3.74197 17.531 2.81374 15.7936 2.43751 13.9023C2.0613 12.011 2.25424 10.0501 2.99219 8.26855C3.73012 6.48719 4.97986 4.96484 6.58301 3.89355C8.18639 2.82221 10.0716 2.25 12 2.25C12.3034 2.25 12.5773 2.43263 12.6934 2.71289C12.8094 2.99313 12.7448 3.31579 12.5303 3.53027C11.4775 4.5831 10.8857 6.01109 10.8857 7.5Z" fill="#525252"/>
</svg>
