<svg preserveAspectRatio="none" width="100%" height="100%" overflow="visible" style="display: block;" viewBox="0 0 14.3333 13.6672" fill="none" xmlns="http://www.w3.org/2000/svg">
<g id="Vector">
<path d="M0.454427 8.90481C0.599371 8.66976 0.907534 8.59645 1.14258 8.7414C1.37761 8.88634 1.45028 9.19451 1.30534 9.42955C1.1093 9.74747 1.00547 10.1249 1 10.5077C1.00177 10.9883 1.163 11.455 1.45898 11.8338C1.75647 12.2146 2.17312 12.485 2.64193 12.6021C3.11069 12.7191 3.60537 12.6759 4.04687 12.4797C4.48835 12.2834 4.85154 11.9451 5.07878 11.5187L5.08203 11.5122C5.44948 10.8467 6.14421 9.98758 7.17318 9.98749H11.1667C11.4428 9.98749 11.6667 10.2113 11.6667 10.4875C11.6665 10.7635 11.4427 10.9875 11.1667 10.9875H7.17318C6.73565 10.9876 6.29683 11.3811 5.95768 11.9953L5.95703 11.9947C5.62474 12.6149 5.09618 13.1072 4.45312 13.3931C3.80783 13.6799 3.08488 13.7431 2.39974 13.5721C1.71456 13.4011 1.10601 13.0056 0.671224 12.4491C0.23651 11.8926 0.000220518 11.2067 0 10.5005V10.4934L0.00976562 10.287C0.047641 9.80509 0.194302 9.32665 0.454427 8.90481Z" fill="#404040"/>
<path d="M6.76042 0.0280613C7.17952 -0.0280989 7.6057 0.000216991 8.01367 0.111395C8.42163 0.222576 8.80341 0.414176 9.13607 0.675197C9.46874 0.936244 9.7455 1.26174 9.95052 1.63158C10.0843 1.87307 9.99733 2.17738 9.75586 2.31126C9.51434 2.44515 9.21005 2.35747 9.07617 2.11595C8.93595 1.86306 8.74634 1.64085 8.51888 1.46231C8.29126 1.28369 8.0298 1.15231 7.75065 1.07624C7.47154 1.00019 7.17996 0.980525 6.89323 1.01895C6.60653 1.05737 6.33061 1.15337 6.08138 1.3002C5.83215 1.44706 5.61461 1.64223 5.44206 1.87442C5.2695 2.10665 5.14488 2.37136 5.07617 2.65241C5.00751 2.93339 4.99572 3.22555 5.04167 3.51113C5.08762 3.79661 5.19049 4.06998 5.34375 4.31517C5.5637 4.65394 5.76462 5.06308 5.85807 5.49616C5.95281 5.93546 5.94209 6.42913 5.69206 6.88679L3.60612 10.7383C3.47462 10.9812 3.17121 11.0717 2.92839 10.9402C2.68567 10.8086 2.59575 10.5052 2.72721 10.2624L4.8138 6.40892L4.81445 6.40762C4.91763 6.21879 4.94033 5.98593 4.88021 5.7071C4.81937 5.42515 4.67938 5.12664 4.5013 4.85358C4.49959 4.85096 4.49775 4.84842 4.49609 4.84577C4.27195 4.4873 4.12188 4.08739 4.05469 3.66999C3.98752 3.25251 4.00441 2.82553 4.10482 2.41478C4.20523 2.00401 4.38712 1.61748 4.63932 1.27806C4.89152 0.938656 5.20926 0.652888 5.57357 0.438218C5.93781 0.223627 6.34141 0.0842154 6.76042 0.0280613Z" fill="#404040"/>
<path d="M13.3333 10.5005C13.3333 9.92588 13.1049 9.37494 12.6986 8.96861C12.2922 8.56228 11.7413 8.33385 11.1667 8.33385C10.401 8.33385 9.30944 8.13291 8.81445 7.22707L6.72786 3.40676C6.59555 3.16443 6.68477 2.86074 6.92708 2.72838C7.16941 2.59606 7.4731 2.68528 7.60547 2.92759L9.69206 6.74726C9.90375 7.1347 10.4657 7.33385 11.1667 7.33385C12.0065 7.33385 12.8117 7.66771 13.4056 8.26158C13.9995 8.85544 14.3333 9.66066 14.3333 10.5005C14.3333 11.3404 13.9995 12.1456 13.4056 12.7394C12.8117 13.3333 12.0065 13.6672 11.1667 13.6672C10.8905 13.6672 10.6667 13.4433 10.6667 13.1672C10.6667 12.891 10.8905 12.6672 11.1667 12.6672C11.7413 12.6672 12.2922 12.4387 12.6986 12.0324C13.1049 11.6261 13.3333 11.0751 13.3333 10.5005Z" fill="#404040"/>
</g>
</svg>
