<svg width="21" height="13" viewBox="0 0 21 13" fill="none" xmlns="http://www.w3.org/2000/svg">
<path d="M17.8848 2.83366C17.9606 4.27608 17.028 5.51247 15.7341 5.88336C15.7167 5.89515 15.705 5.90103 15.6933 5.90692C14.4286 6.2484 13.496 7.41412 13.496 8.80355C13.496 8.81534 13.4844 8.83301 13.4727 8.85066C13.292 10.3284 12.0389 11.4706 10.5294 11.4706H10.4711C8.96152 11.4706 7.70841 10.3284 7.52774 8.85066C7.51026 8.8271 7.50442 8.81534 7.50442 8.80355C7.50442 7.42 6.57188 6.2484 5.30712 5.90692C5.29546 5.90103 5.2838 5.89515 5.26633 5.88336C3.97241 5.51247 3.03987 4.27608 3.11563 2.83366C3.19142 1.33823 4.38039 0.113634 5.86081 0.00765925C7.59768 -0.115978 9.04312 1.27347 9.04312 2.99849C9.04312 3.01617 9.04312 3.03972 9.04312 3.05737C9.12472 3.6991 9.40447 4.29376 9.8358 4.75296C10.1971 5.13567 10.7975 5.13567 11.1588 4.75296C11.5901 4.29376 11.8757 3.6991 11.9515 3.05737C11.9515 3.03972 11.9515 3.01617 11.9515 2.99849C11.9515 1.27347 13.3969 -0.115978 15.1338 0.00765925C16.6084 0.113634 17.8032 1.33823 17.8848 2.83366Z" fill="#00B8C2"/>
<path d="M17.8885 12.9999C19.6067 12.9999 20.9996 11.8016 20.9996 10.3234C20.9996 8.84527 19.6067 7.64697 17.8885 7.64697C16.1702 7.64697 14.7773 8.84527 14.7773 10.3234C14.7773 11.8016 16.1702 12.9999 17.8885 12.9999Z" fill="#FDB515"/>
<path d="M3.11113 12.9999C4.82934 12.9999 6.22222 11.8016 6.22222 10.3234C6.22222 8.84528 4.82934 7.64697 3.11113 7.64697C1.3929 7.64697 0 8.84528 0 10.3234C0 11.8016 1.3929 12.9999 3.11113 12.9999Z" fill="#FDB515"/>
</svg>
