<svg preserveAspectRatio="none" width="100%" height="100%" overflow="visible" style="display: block;" viewBox="0 0 21 13" fill="none" xmlns="http://www.w3.org/2000/svg">
<g id="Monnify logo">
<path id="Vector" d="M17.8846 2.83366C17.9604 4.27608 17.0278 5.51247 15.7339 5.88336C15.7164 5.89515 15.7048 5.90103 15.6931 5.90692C14.4284 6.2484 13.4958 7.41412 13.4958 8.80355C13.4958 8.81534 13.4841 8.83301 13.4725 8.85066C13.2918 10.3284 12.0387 11.4706 10.5292 11.4706H10.4709C8.9613 11.4706 7.7082 10.3284 7.52752 8.85066C7.51005 8.8271 7.5042 8.81534 7.5042 8.80355C7.5042 7.42 6.57166 6.2484 5.3069 5.90692C5.29524 5.90103 5.28359 5.89515 5.26611 5.88336C3.9722 5.51247 3.03966 4.27608 3.11542 2.83366C3.1912 1.33823 4.38018 0.113634 5.86059 0.00765925C7.59746 -0.115978 9.0429 1.27347 9.0429 2.99849C9.0429 3.01617 9.0429 3.03972 9.0429 3.05737C9.1245 3.6991 9.40426 4.29376 9.83558 4.75296C10.1969 5.13567 10.7972 5.13567 11.1586 4.75296C11.5899 4.29376 11.8755 3.6991 11.9513 3.05737C11.9513 3.03972 11.9513 3.01617 11.9513 2.99849C11.9513 1.27347 13.3967 -0.115978 15.1336 0.00765925C16.6082 0.113634 17.803 1.33823 17.8846 2.83366Z" fill="#00B8C2"/>
<path id="Vector_2" d="M17.8889 13C19.6071 13 21 11.8017 21 10.3235C21 8.84535 19.6071 7.64706 17.8889 7.64706C16.1707 7.64706 14.7778 8.84535 14.7778 10.3235C14.7778 11.8017 16.1707 13 17.8889 13Z" fill="#FDB515"/>
<path id="Vector_3" d="M3.11113 13C4.82934 13 6.22222 11.8017 6.22222 10.3235C6.22222 8.84537 4.82934 7.64706 3.11113 7.64706C1.3929 7.64706 0 8.84537 0 10.3235C0 11.8017 1.3929 13 3.11113 13Z" fill="#FDB515"/>
</g>
</svg>
